<?xml version="1.0" encoding="UTF-8"?>
<svg version="1.1" xmlns="http://www.w3.org/2000/svg" width="500" height="500">
<path d="M0 0 C165 0 330 0 500 0 C500 165 500 330 500 500 C335 500 170 500 0 500 C0 335 0 170 0 0 Z " fill="#000000" transform="translate(0,0)"/>
<path d="M0 0 C15 0 15 0 19.30151367 3.94384766 C20.47790069 5.73274217 21.59808442 7.55950661 22.66796875 9.4140625 C23.28094315 10.37645844 23.89391754 11.33885437 24.52546692 12.33041382 C26.46450763 15.39968074 28.32548141 18.50853589 30.1875 21.625 C31.47749317 23.69708696 32.77237342 25.76613991 34.07226562 27.83203125 C36.93381776 32.39712357 39.74672105 36.98822863 42.51896667 41.60806274 C44.27783465 44.4487158 46.14669307 47.22003961 48 50 C48.33 33.5 48.66 17 49 0 C53.62 0 58.24 0 63 0 C63 24.75 63 49.5 63 75 C49 75 49 75 44.82788086 71.1796875 C43.65693057 69.44412461 42.53783463 67.67277465 41.46484375 65.875 C40.54681725 64.47181519 40.54681725 64.47181519 39.61024475 63.0402832 C37.67190433 60.05436616 35.80529284 57.03043058 33.9375 54 C32.65098038 51.99320433 31.3600023 49.98925949 30.06445312 47.98828125 C27.20406582 43.54878005 24.38762331 39.08495842 21.60801697 34.59448242 C19.41538622 31.05674492 17.20591749 27.52946798 15 24 C14.67 40.83 14.34 57.66 14 75 C9.38 75 4.76 75 0 75 C0 50.25 0 25.5 0 0 Z " fill="#F8BE00" transform="translate(254,211)"/>
<path d="M0 0 C40.85213098 0 40.85213098 0 49.3359375 8.12890625 C54.1100867 13.49702237 54.55067411 19.16031412 54.34375 26.06640625 C53.63760401 32.09272032 51.16926287 36.16850927 46.8125 40.3125 C39.70277703 45.73719688 32.13099341 46.43426331 23.4375 46.1875 C18.7659375 46.0946875 18.7659375 46.0946875 14 46 C14 55.57 14 65.14 14 75 C9.38 75 4.76 75 0 75 C0 50.25 0 25.5 0 0 Z " fill="#FBC100" transform="translate(128,211)"/>
<path d="M0 0 C5.0871724 3.27413402 8.7036185 6.32013683 10.86328125 12.19921875 C10.86328125 14.17921875 10.86328125 16.15921875 10.86328125 18.19921875 C6.24328125 18.19921875 1.62328125 18.19921875 -3.13671875 18.19921875 C-4.11328125 16.40885417 -5.08984375 14.61848958 -6.06640625 12.828125 C-7.05081899 11.0330356 -7.05081899 11.0330356 -9.13671875 10.19921875 C-16.28126388 9.48340927 -16.28126388 9.48340927 -22.82421875 11.82421875 C-24.56726519 14.97830279 -24.78964842 16.64437942 -24.13671875 20.19921875 C-19.40194951 26.35640816 -12.49820669 28.06048236 -5.41601562 30.62890625 C1.54262947 33.28886615 8.15121262 36.58087721 12.05639648 43.23095703 C14.18295244 48.41833801 13.60975008 55.27476174 12.24609375 60.6171875 C9.55228734 66.77956765 4.49337266 70.32313611 -1.34375 73.33984375 C-9.01311714 75.69964903 -19.97850195 75.64498853 -27.38671875 72.51171875 C-29.3828125 71.390625 -29.3828125 71.390625 -31.13671875 70.19921875 C-31.70519531 69.83699219 -32.27367187 69.47476563 -32.859375 69.1015625 C-37.00504012 66.09671923 -39.70349627 62.07217519 -41.13671875 57.19921875 C-41.13671875 54.88921875 -41.13671875 52.57921875 -41.13671875 50.19921875 C-36.51671875 50.19921875 -31.89671875 50.19921875 -27.13671875 50.19921875 C-26.60046875 51.62234375 -26.06421875 53.04546875 -25.51171875 54.51171875 C-24.02639779 57.82632973 -23.32566198 59.06066038 -20.32421875 61.26171875 C-15.29855444 62.73985531 -11.72210165 62.82738933 -6.82421875 60.88671875 C-3.92117988 59.31973388 -3.92117988 59.31973388 -2.13671875 56.19921875 C-1.67506641 52.65988412 -1.77017132 50.81304023 -3.61328125 47.7265625 C-6.98848131 44.34613768 -10.43243701 43.18334435 -14.88671875 41.63671875 C-31.63898351 35.61986366 -31.63898351 35.61986366 -35.57421875 30.63671875 C-36.04730469 30.05792969 -36.52039063 29.47914063 -37.0078125 28.8828125 C-40.42226932 23.79066409 -39.64204563 17.04657266 -39.13671875 11.19921875 C-36.48629367 5.36828357 -31.30482313 0.51293199 -25.3671875 -1.94921875 C-17.09116452 -4.13080643 -7.64152807 -4.10138512 0 0 Z " fill="#F9BF00" transform="translate(370.13671875,212.80078125)"/>
<path d="M0 0 C13.04933957 -1.51150651 13.04933957 -1.51150651 17.23828125 1.734375 C19.0635732 4.40043389 20.52214127 7.12618796 22 10 C23.55611493 12.55224623 25.18688521 15.0541693 26.8125 17.5625 C27.39136963 18.4918335 27.39136963 18.4918335 27.98193359 19.43994141 C29.95028976 22.77189774 29.95028976 22.77189774 33 25 C33.28270752 24.27530518 33.56541504 23.55061035 33.85668945 22.80395508 C42.27815227 2.15042092 42.27815227 2.15042092 49.03173828 -0.92529297 C53.48568411 -1.7393436 57.61536565 -1.07818877 62 0 C60.63455857 3.67434632 58.96749858 6.89986872 56.91796875 10.23828125 C56.01401367 11.71651367 56.01401367 11.71651367 55.09179688 13.22460938 C54.14916992 14.75311523 54.14916992 14.75311523 53.1875 16.3125 C52.57068359 17.31990234 51.95386719 18.32730469 51.31835938 19.36523438 C50.71185547 20.35458984 50.10535156 21.34394531 49.48046875 22.36328125 C48.89185059 23.3270166 48.30323242 24.29075195 47.69677734 25.28369141 C46.63127725 26.98941141 45.53647496 28.677525 44.40087891 30.33740234 C43.93472168 31.02398926 43.46856445 31.71057617 42.98828125 32.41796875 C42.57747314 32.99699951 42.16666504 33.57603027 41.7434082 34.17260742 C40.68021322 36.78607687 41.18544113 38.33375088 42 41 C43.04661376 43.12516226 43.04661376 43.12516226 44.40625 45.15234375 C44.89899414 45.92271973 45.39173828 46.6930957 45.89941406 47.48681641 C46.42760742 48.29554199 46.95580078 49.10426758 47.5 49.9375 C48.03592773 50.77200684 48.57185547 51.60651367 49.12402344 52.46630859 C50.74181613 54.98250074 52.36970619 57.49189424 54 60 C55.35510475 62.09346311 56.70886809 64.18777063 58.06054688 66.28344727 C58.8400665 67.49032669 59.62251734 68.69531903 60.40820312 69.89819336 C63 73.89065055 63 73.89065055 63 75 C57.61382549 76.24455894 52.23627709 77.23434927 47 75 C41.8989824 70.1241203 38.61900769 63.60991261 35.39355469 57.40356445 C33.83008623 54.70693745 31.99493434 52.39004188 30 50 C29.58113525 50.72179443 29.16227051 51.44358887 28.73071289 52.18725586 C26.84291536 55.43827338 24.95274073 58.68790247 23.0625 61.9375 C22.40314453 63.07380859 21.74378906 64.21011719 21.06445312 65.38085938 C20.43603516 66.46044922 19.80761719 67.54003906 19.16015625 68.65234375 C18.57886963 69.65257568 17.99758301 70.65280762 17.39868164 71.68334961 C16 74 16 74 15 75 C12.46950598 75.07313567 9.96695163 75.09247527 7.4375 75.0625 C6.72658203 75.05798828 6.01566406 75.05347656 5.28320312 75.04882812 C3.52209987 75.03700864 1.76103964 75.01907263 0 75 C3.26314526 68.16508237 6.89230412 61.73463068 11 55.375 C12.51534948 53.00582416 14.03038058 50.63665125 15.53515625 48.26074219 C16.51049362 46.75547151 17.51871713 45.27100093 18.55859375 43.80957031 C19.03425781 43.12217773 19.50992188 42.43478516 20 41.7265625 C20.6496875 40.82671631 20.6496875 40.82671631 21.3125 39.90869141 C22.2369241 37.9250936 22.2369241 37.9250936 21.29956055 35.546875 C20.04958622 33.09717893 18.72176143 30.81809047 17.20703125 28.5234375 C16.66199951 27.69247559 16.11696777 26.86151367 15.55541992 26.00537109 C14.98025635 25.13734863 14.40509277 24.26932617 13.8125 23.375 C12.63778374 21.58348878 11.46330287 19.79182318 10.2890625 18 C9.19272741 16.33332079 8.09637492 14.66665301 7 13 C5.5546341 10.79649878 4.11790513 8.58830177 2.6875 6.375 C1.88892578 5.14910156 1.88892578 5.14910156 1.07421875 3.8984375 C0 2 0 2 0 0 Z " fill="#F9C000" transform="translate(54,211)"/>
<path d="M0 0 C16.17 0 32.34 0 49 0 C49 3.63 49 7.26 49 11 C37.45 11 25.9 11 14 11 C14 17.93 14 24.86 14 32 C24.56 32 35.12 32 46 32 C46 35.3 46 38.6 46 42 C35.44 42 24.88 42 14 42 C14 49.26 14 56.52 14 64 C25.55 64 37.1 64 49 64 C49 67.63 49 71.26 49 75 C32.83 75 16.66 75 0 75 C0 50.25 0 25.5 0 0 Z " fill="#FAC000" transform="translate(395,211)"/>
<path d="M0 0 C16.17 0 32.34 0 49 0 C49 3.63 49 7.26 49 11 C37.12 11 25.24 11 13 11 C13 17.93 13 24.86 13 32 C23.56 32 34.12 32 45 32 C45 35.3 45 38.6 45 42 C34.44 42 23.88 42 13 42 C13 49.26 13 56.52 13 64 C24.88 64 36.76 64 49 64 C49 67.63 49 71.26 49 75 C32.83 75 16.66 75 0 75 C0 50.25 0 25.5 0 0 Z " fill="#FDC200" transform="translate(193,211)"/>
<path d="M0 0 C2.84625 -0.061875 5.6925 -0.12375 8.625 -0.1875 C9.51010254 -0.21481201 10.39520508 -0.24212402 11.30712891 -0.27026367 C16.2838514 -0.32234956 19.73656943 0.15131141 24 3 C26.820631 5.86833723 27.43135748 7.95100643 27.4375 11.9375 C27.32450863 15.42482447 27.06225628 16.88932218 25.3125 20 C20.17155852 24.44621966 15.15509083 24.25669434 8.6875 24.125 C5.820625 24.08375 2.95375 24.0425 0 24 C0 16.08 0 8.16 0 0 Z " fill="#0A0800" transform="translate(141,222)"/>
</svg>
